<svg xmlns="http://www.w3.org/2000/svg" xmlns:xlink="http://www.w3.org/1999/xlink" width="379" height="256.755" viewBox="0 0 379 256.755">
  <defs>
    <linearGradient id="linear-gradient" x1="0.5" y1="1" x2="0.5" gradientUnits="objectBoundingBox">
      <stop offset="0" stop-color="gray" stop-opacity="0.251"/>
      <stop offset="0.54" stop-color="gray" stop-opacity="0.122"/>
      <stop offset="1" stop-color="gray" stop-opacity="0.102"/>
    </linearGradient>
    <linearGradient id="linear-gradient-4" x1="0.5" y1="1" x2="0.5" y2="0" xlink:href="#linear-gradient"/>
    <linearGradient id="linear-gradient-12" x1="0" y1="0.5" x2="1" y2="0.5" xlink:href="#linear-gradient"/>
  </defs>
  <g id="Group_35" data-name="Group 35" transform="translate(0.002 -0.004)">
    <path id="Path_1010" data-name="Path 1010" d="M238.868,104.019c-23.291-.037-45.732-7.273-67.2-15.326s-42.77-17.033-65.64-20.885C91.3,65.332,74.6,65.5,63.128,74.295c-11.035,8.464-14.194,22.511-15.707,35.5-1.135,9.766-1.643,20.025,2.734,28.974,3.042,6.215,8.23,11.343,11.9,17.27,12.775,20.617,5.194,46.857-7.109,67.882-5.773,9.843-12.538,19.292-16.892,29.721s-6.118,22.264-1.62,32.582c4.465,10.232,14.506,17.692,25.246,22.783,21.852,10.375,47.245,12.658,71.959,13.585,54.716,2.055,109.515-1.607,164.17-5.288,20.225-1.359,40.541-2.731,60.342-6.791,10.995-2.252,22.311-5.609,30.089-13.026,9.873-9.412,11.855-24.824,4.622-35.926-12.136-18.639-43.985-22.24-52.721-42.382-4.81-11.088-.726-23.763,5.308-34.426,12.949-22.856,35.29-43.3,35.595-68.91.208-17.591-11.49-34.785-28.907-42.483-18.261-8.079-43.108-6.091-55.837,8.8C283.195,97.489,259.435,104.052,238.868,104.019Z" transform="translate(-33.81 -66.43)" fill="#ffe082" opacity="0.1"/>
    <path id="Path_1011" data-name="Path 1011" d="M976.37,689.494s-4.113-2.714-8.19-.783c0,0,1.255,2.42,6.416,2.189Z" transform="translate(-655.455 -479.974)" fill="#6c63ff"/>
    <path id="Path_1012" data-name="Path 1012" d="M988.747,692.87s1.252,4.766-1.884,8.009c0,0-1.888-1.968,0-6.781Z" transform="translate(-667.326 -483.202)" fill="#6c63ff"/>
    <path id="Path_1013" data-name="Path 1013" d="M990.7,673.267s-.3-4.056-9.455-2.711c0,0-.044,2.617,3.169,3.856S989.092,674.606,990.7,673.267Z" transform="translate(-664.143 -468.175)" fill="#6c63ff"/>
    <path id="Path_1014" data-name="Path 1014" d="M1005.843,679.11s3.872,1.245.422,9.83c0,0-2.554-.572-3.012-3.986S1004.166,680.355,1005.843,679.11Z" transform="translate(-678.729 -474.048)" fill="#6c63ff"/>
    <path id="Path_1015" data-name="Path 1015" d="M1009.074,649.936s.522-6.67-8.833-5.984c0,0-.669,6.024,7.179,7.587Z" transform="translate(-676.776 -450.623)" fill="#6c63ff"/>
    <path id="Path_1016" data-name="Path 1016" d="M1023.993,628.051s-1.285-7.557-10.633-5.3c0,0-.037,6.537,9.1,7.109Z" transform="translate(-685.513 -436.27)" fill="#6c63ff"/>
    <path id="Path_1017" data-name="Path 1017" d="M1035.94,605.1s-2.145-7.363-11.41-5.158c0,0,2.2,6.62,10.794,6.52Z" transform="translate(-692.945 -421.101)" fill="#6c63ff"/>
    <path id="Path_1018" data-name="Path 1018" d="M1049.485,581.967s-2.1-7.641-11.045-5.355c0,0,2.985,7.259,10.456,6.65Z" transform="translate(-702.199 -405.571)" fill="#6c63ff"/>
    <path id="Path_1019" data-name="Path 1019" d="M1059.944,556.829s-1.613-9.331-9.944-7.276c0,0,2.423,8.5,9.338,8.635Z" transform="translate(-709.89 -387.655)" fill="#6c63ff"/>
    <path id="Path_1020" data-name="Path 1020" d="M1066.825,531.519s-1.934-9.422-10.375-6.694c0,0,3.31,8.9,9.78,7.979Z" transform="translate(-714.181 -371.071)" fill="#6c63ff"/>
    <path id="Path_1021" data-name="Path 1021" d="M1073.169,503.314s-3.076-9.418-9.6-9.164c0,0,3.146,9.95,9.037,11.045Z" transform="translate(-718.918 -350.989)" fill="#6c63ff"/>
    <path id="Path_1022" data-name="Path 1022" d="M1078.1,476.97s-3.347-11.339-8.655-10.466c0,0,2.316,8.668,8.468,12.23Z" transform="translate(-722.824 -332.568)" fill="#ffe082"/>
    <path id="Path_1023" data-name="Path 1023" d="M1080.367,450.057s-3.136-9.452-8.367-9.827c0,0,2.135,9.3,8.26,12.28Z" transform="translate(-724.527 -315.119)" fill="#ffe082"/>
    <path id="Path_1024" data-name="Path 1024" d="M1084.293,424.033s-3.912-9.462-7.363-9.673c0,0,1.7,9.311,7.029,11.226Z" transform="translate(-727.807 -297.907)" fill="#ffe082"/>
    <path id="Path_1025" data-name="Path 1025" d="M1088.564,396.625s-2.417-10.288-5.864-11.125c0,0,.475,8.4,5.519,11.892Z" transform="translate(-731.645 -278.707)" fill="#ffe082"/>
    <path id="Path_1026" data-name="Path 1026" d="M1093.512,367.895s-2.53-8.187-5.332-9.435c0,0,.556,9.653,4.686,11.44Z" transform="translate(-735.291 -260.717)" fill="#ffe082"/>
    <path id="Path_1027" data-name="Path 1027" d="M1103.162,336.879l.512-14.439s-5.228,10.894-.9,16.986Z" transform="translate(-743.86 -236.752)" fill="#ffe082"/>
    <path id="Path_1028" data-name="Path 1028" d="M1115.379,300.582s3.769-10.546,4.686-11.132c0,0-7.4,6.838-6.674,15.64Z" transform="translate(-752.032 -214.804)" fill="#ffe082"/>
    <path id="Path_1029" data-name="Path 1029" d="M1024.406,661.748s6.633-.87,6.433,8.508c0,0-5.995.974-7.949-6.778Z" transform="translate(-691.853 -462.482)" fill="#6c63ff"/>
    <path id="Path_1030" data-name="Path 1030" d="M1043.02,638.68s7.668-.027,7.029,9.572c0,0-6.433,1.148-8.558-7.761Z" transform="translate(-704.228 -447.149)" fill="#6c63ff"/>
    <path id="Path_1031" data-name="Path 1031" d="M1057.622,616.763s6.958-3.263,11.413,5.158c0,0-6.429,2.721-12.026-3.8Z" transform="translate(-714.554 -432.154)" fill="#ffe082"/>
    <path id="Path_1032" data-name="Path 1032" d="M1070.739,592.223s7.122-3.474,11.306,4.756c0,0-7.42,2.557-11.9-3.454Z" transform="translate(-723.296 -415.757)" fill="#ffe082"/>
    <path id="Path_1033" data-name="Path 1033" d="M1078.808,566.738s6.858-6.55,12.33.077c0,0-7.005,5.389-12.648,1.382Z" transform="translate(-728.844 -397.364)" fill="#ffe082"/>
    <path id="Path_1034" data-name="Path 1034" d="M1085.8,539.4s6.9-6.694,12.33.308c0,0-7.745,5.5-12.574,1.1Z" transform="translate(-733.548 -379.18)" fill="#ffe082"/>
    <path id="Path_1035" data-name="Path 1035" d="M1090.15,507.284s5.315-8.367,11.57-6.5c0,0-5.512,8.859-11.51,8.464Z" transform="translate(-736.602 -355.227)" fill="#ffe082"/>
    <path id="Path_1036" data-name="Path 1036" d="M1094.557,479.984s5.355-10.539,10.419-8.7c0,0-3.859,8.1-10.556,10.479Z" transform="translate(-739.443 -335.635)" fill="#ffe082"/>
    <path id="Path_1037" data-name="Path 1037" d="M1094.872,453.353s5.506-8.294,10.663-7.283c0,0-4.5,8.411-11.2,9.683Z" transform="translate(-739.39 -318.948)" fill="#ffe082"/>
    <path id="Path_1038" data-name="Path 1038" d="M1097.19,424.038s4.264-9.3,7.735-9.388c0,0-2.048,9.244-7.45,10.954Z" transform="translate(-741.286 -298.1)" fill="#ffe082"/>
    <path id="Path_1039" data-name="Path 1039" d="M1099.71,399.362s4.743-9.425,8.307-9.442c0,0-2.427,8.056-8.146,10.272Z" transform="translate(-742.962 -281.647)" fill="#ffe082"/>
    <path id="Path_1040" data-name="Path 1040" d="M1101.85,371.122s3.548-7.8,6.483-8.682c0,0-1.774,9.505-6.095,10.75Z" transform="translate(-744.386 -263.365)" fill="#ffe082"/>
    <path id="Path_1041" data-name="Path 1041" d="M1106.308,340.756l7.926-12.076s-2.028,11.912-9.084,14.392Z" transform="translate(-746.582 -240.904)" fill="#ffe082"/>
    <path id="Path_1042" data-name="Path 1042" d="M1117.232,310.92s9.214-6.359,9.546-7.39c0,0-4.686,8.91-13.388,10.483Z" transform="translate(-752.064 -224.171)" fill="#ffe082"/>
    <path id="Path_1043" data-name="Path 1043" d="M1126,296.868s10.58-10.171,13.281-10.158a17.271,17.271,0,0,0-13.535,9.616Z" transform="translate(-760.287 -212.981)" fill="#ffe082"/>
    <path id="Path_1044" data-name="Path 1044" d="M1102.15,340.783l.385.05c1.988-15.563,4.886-24.767,8.163-25.9l-.127-.365C1107.1,315.775,1104.188,324.838,1102.15,340.783Z" transform="translate(-744.586 -231.516)" fill="#444053"/>
    <path id="Path_1045" data-name="Path 1045" d="M1093.42,427.8l.582.05c.12-1.453.214-2.942.278-4.421.556-12.882,1.419-24.707,2.55-33.573l-.335-.418c-1.135,8.883-2.239,21.069-2.795,33.965C1093.634,424.877,1093.541,426.357,1093.42,427.8Z" transform="translate(-738.778 -281.328)" fill="#444053"/>
    <path id="Path_1046" data-name="Path 1046" d="M959.571,572.274c.1-.047,10.355-4.622,21-15.543a84.485,84.485,0,0,0,15.346-21.755c4.917-10.017,7.915-22.327,8.923-34.286l-.606.284c-2.259,26.839-14.479,45.184-24.2,55.171-10.536,10.824-20.671,15.356-20.771,15.4Z" transform="translate(-649.52 -355.343)" fill="#444053"/>
    <path id="Path_1047" data-name="Path 1047" d="M437.544,115.31h-321.6a2.865,2.865,0,0,0-2.865,2.865v8.347H440.409v-8.347A2.865,2.865,0,0,0,437.544,115.31Z" transform="translate(-86.55 -98.947)" fill="#3f3d56"/>
    <path id="Path_1048" data-name="Path 1048" d="M113.08,148.81V336.653a5.777,5.777,0,0,0,5.777,5.777H434.633a5.777,5.777,0,0,0,5.777-5.777V148.81Z" transform="translate(-86.55 -121.235)" fill="#fff"/>
    <circle id="Ellipse_64" data-name="Ellipse 64" cx="1.339" cy="1.339" r="1.339" transform="translate(30.379 20.543)" fill="#fa5959" opacity="0.8"/>
    <circle id="Ellipse_65" data-name="Ellipse 65" cx="1.339" cy="1.339" r="1.339" transform="translate(34.06 20.543)" fill="#fed253" opacity="0.8"/>
    <circle id="Ellipse_66" data-name="Ellipse 66" cx="1.339" cy="1.339" r="1.339" transform="translate(37.742 20.543)" fill="#8ccf4d" opacity="0.8"/>
    <g id="Group_32" data-name="Group 32" transform="translate(39.081 38.951)" opacity="0.3">
      <rect id="Rectangle_118" data-name="Rectangle 118" width="302.562" height="170.693" fill="none" stroke="#3f3d56" stroke-miterlimit="10" stroke-width="1"/>
      <rect id="Rectangle_119" data-name="Rectangle 119" width="223.575" height="170.693" transform="translate(39.494)" fill="none" stroke="#3f3d56" stroke-miterlimit="10" stroke-width="1"/>
      <rect id="Rectangle_120" data-name="Rectangle 120" width="144.587" height="170.693" transform="translate(78.987)" fill="none" stroke="#3f3d56" stroke-miterlimit="10" stroke-width="1"/>
      <rect id="Rectangle_121" data-name="Rectangle 121" width="65.6" height="170.693" transform="translate(118.481)" fill="none" stroke="#3f3d56" stroke-miterlimit="10" stroke-width="1"/>
      <line id="Line_5" data-name="Line 5" y2="170.693" transform="translate(151.281)" fill="none" stroke="#3f3d56" stroke-miterlimit="10" stroke-width="1"/>
      <rect id="Rectangle_122" data-name="Rectangle 122" width="302.562" height="121.159" transform="translate(0 24.767)" fill="none" stroke="#3f3d56" stroke-miterlimit="10" stroke-width="1"/>
      <rect id="Rectangle_123" data-name="Rectangle 123" width="302.562" height="72.294" transform="translate(0 49.2)" fill="none" stroke="#3f3d56" stroke-miterlimit="10" stroke-width="1"/>
      <rect id="Rectangle_124" data-name="Rectangle 124" width="302.562" height="23.428" transform="translate(0 73.632)" fill="none" stroke="#3f3d56" stroke-miterlimit="10" stroke-width="1"/>
    </g>
    <rect id="Rectangle_125" data-name="Rectangle 125" width="23.763" height="8.702" transform="translate(86.44 48.49)" fill="#3f3d56" opacity="0.1"/>
    <rect id="Rectangle_126" data-name="Rectangle 126" width="17.739" height="8.702" transform="translate(49.289 72.253)" fill="#3f3d56" opacity="0.1"/>
    <rect id="Rectangle_127" data-name="Rectangle 127" width="23.763" height="8.702" transform="translate(124.929 48.49)" fill="#3f3d56" opacity="0.1"/>
    <rect id="Rectangle_128" data-name="Rectangle 128" width="23.763" height="8.702" transform="translate(161.076 48.49)" fill="#3f3d56" opacity="0.1"/>
    <rect id="Rectangle_129" data-name="Rectangle 129" width="23.763" height="8.702" transform="translate(194.546 48.49)" fill="#3f3d56" opacity="0.1"/>
    <rect id="Rectangle_130" data-name="Rectangle 130" width="23.763" height="8.702" transform="translate(232.031 48.49)" fill="#3f3d56" opacity="0.1"/>
    <rect id="Rectangle_131" data-name="Rectangle 131" width="23.763" height="8.702" transform="translate(270.186 48.49)" fill="#3f3d56" opacity="0.1"/>
    <rect id="Rectangle_132" data-name="Rectangle 132" width="23.763" height="8.702" transform="translate(310.684 48.49)" fill="#3f3d56" opacity="0.1"/>
    <rect id="Rectangle_133" data-name="Rectangle 133" width="15.439" height="14.947" transform="translate(133.471 95.665)" fill="url(#linear-gradient)"/>
    <rect id="Rectangle_134" data-name="Rectangle 134" width="14.907" height="14.432" transform="translate(133.739 95.923)" fill="#7cfcff"/>
    <rect id="Rectangle_135" data-name="Rectangle 135" width="15.439" height="14.947" transform="translate(165.28 92.425)" fill="url(#linear-gradient)"/>
    <rect id="Rectangle_136" data-name="Rectangle 136" width="14.907" height="14.432" transform="translate(165.548 92.683)" fill="#ffffa5"/>
    <rect id="Rectangle_137" data-name="Rectangle 137" width="15.439" height="14.947" transform="translate(226.529 143.298)" fill="url(#linear-gradient)"/>
    <rect id="Rectangle_138" data-name="Rectangle 138" width="14.907" height="14.432" transform="translate(226.796 143.556)" fill="#ffffa5"/>
    <rect id="Rectangle_139" data-name="Rectangle 139" width="15.439" height="14.947" transform="translate(90.556 69.027)" fill="url(#linear-gradient-4)"/>
    <rect id="Rectangle_140" data-name="Rectangle 140" width="14.907" height="14.432" transform="translate(90.821 69.284)" fill="#ffffa5"/>
    <rect id="Rectangle_141" data-name="Rectangle 141" width="15.439" height="14.947" transform="translate(121.234 90.447)" fill="url(#linear-gradient-4)"/>
    <rect id="Rectangle_142" data-name="Rectangle 142" width="14.907" height="14.432" transform="translate(121.499 90.705)" fill="#ff8a65"/>
    <rect id="Rectangle_143" data-name="Rectangle 143" width="15.439" height="14.947" transform="translate(244.589 143.191)" fill="url(#linear-gradient)"/>
    <rect id="Rectangle_144" data-name="Rectangle 144" width="14.907" height="14.432" transform="translate(244.857 143.449)" fill="#7cfcff"/>
    <rect id="Rectangle_145" data-name="Rectangle 145" width="15.439" height="14.947" transform="translate(271.699 69.224)" fill="url(#linear-gradient)"/>
    <rect id="Rectangle_146" data-name="Rectangle 146" width="14.907" height="14.432" transform="translate(271.967 69.482)" fill="#7cfcff"/>
    <rect id="Rectangle_147" data-name="Rectangle 147" width="15.439" height="14.947" transform="translate(270.025 116.75)" fill="url(#linear-gradient)"/>
    <rect id="Rectangle_148" data-name="Rectangle 148" width="14.907" height="14.432" transform="translate(270.293 117.008)" fill="#7cfcff"/>
    <rect id="Rectangle_149" data-name="Rectangle 149" width="15.439" height="14.947" transform="translate(281.74 120.097)" fill="url(#linear-gradient)"/>
    <rect id="Rectangle_150" data-name="Rectangle 150" width="14.907" height="14.432" transform="translate(282.007 120.355)" fill="#7cfcff"/>
    <rect id="Rectangle_151" data-name="Rectangle 151" width="15.439" height="14.947" transform="translate(232.352 137.973)" fill="url(#linear-gradient-4)"/>
    <rect id="Rectangle_152" data-name="Rectangle 152" width="14.907" height="14.432" transform="translate(232.617 138.231)" fill="#ff8a65"/>
    <rect id="Rectangle_153" data-name="Rectangle 153" width="15.439" height="14.947" transform="translate(234.026 92.79)" fill="url(#linear-gradient-4)"/>
    <rect id="Rectangle_154" data-name="Rectangle 154" width="14.907" height="14.432" transform="translate(234.29 93.047)" fill="#ff8a65"/>
    <rect id="Rectangle_155" data-name="Rectangle 155" width="17.739" height="8.702" transform="translate(49.289 95.682)" fill="#3f3d56" opacity="0.1"/>
    <rect id="Rectangle_156" data-name="Rectangle 156" width="17.739" height="8.702" transform="translate(49.289 120.114)" fill="#3f3d56" opacity="0.1"/>
    <rect id="Rectangle_157" data-name="Rectangle 157" width="17.739" height="8.702" transform="translate(49.289 144.547)" fill="#3f3d56" opacity="0.1"/>
    <rect id="Rectangle_158" data-name="Rectangle 158" width="17.739" height="8.702" transform="translate(49.289 168.979)" fill="#3f3d56" opacity="0.1"/>
    <rect id="Rectangle_159" data-name="Rectangle 159" width="17.739" height="8.702" transform="translate(49.289 193.412)" fill="#3f3d56" opacity="0.1"/>
    <path id="Path_1049" data-name="Path 1049" d="M195.905,363.1c.5-.315.3-1.158-.211-1.449a2.483,2.483,0,0,0-1.714-.08.7.7,0,0,0-.368-.736v-.127a.915.915,0,0,0-.2-1.3,2.62,2.62,0,0,0-1.593-.281,2.122,2.122,0,0,0-.669-1.807.559.559,0,0,0-.368-.177c-.335,0-.428.428-.452.746a14.132,14.132,0,0,1-.412,2.473l-10.4,17.4c-1.158,1.673,2.44-3.347,1.282-1.657a14.726,14.726,0,0,1-2.048,2.54,10.1,10.1,0,0,1-2.313,1.55,2.728,2.728,0,0,1-1.58-.449,6.359,6.359,0,0,1-1.52-1.5,29.664,29.664,0,0,1-2.453-3.645,4.723,4.723,0,0,1-.562-1.3,12.016,12.016,0,0,0-.285-2.186,3.572,3.572,0,0,0-.449-.71l-.72-.954v-.044c-.08-1.412-1.228-2.5-2.3-3.434a6.2,6.2,0,0,0-3.1-1.781c-.643-.084-1.3.04-1.945-.04-.525-.067-1.024-.264-1.546-.351a6.56,6.56,0,0,0-1.516-.03l-.214-.2a6,6,0,0,0,2.708-2.276c.5-.8.766-1.724,1.225-2.547.559-1,1.389-1.834,2.008-2.8a10.338,10.338,0,0,0,1.165-7.892,19.092,19.092,0,0,0-3.682-7.243c-3.213-4.157-8.6-5.69-13.676-4.887q-.5.08-1,.191a12.893,12.893,0,0,0-2.487.793,6.359,6.359,0,0,0-2.714,2.119,4.888,4.888,0,0,0-.472.877,5.169,5.169,0,0,0-.228.723,7.5,7.5,0,0,0-.124,2.263c.02.258.047.515.077.773l.05.388c.033.258.07.515.107.773.054.388.1.776.141,1.158a7.37,7.37,0,0,1,.044.813v.2a3.325,3.325,0,0,1-.09.6,2.514,2.514,0,0,1-.1.318,3.962,3.962,0,0,1-.472.867,10.946,10.946,0,0,1-.847,1.041l-.291.335c-.1.11-.191.224-.288.335a12.268,12.268,0,0,0-1.048,1.416,6.885,6.885,0,0,0-.412.776,5.556,5.556,0,0,0-.238.623,5.155,5.155,0,0,0-.181.87.824.824,0,0,1-.02.221v.438a3.837,3.837,0,0,0,.047.435,3.089,3.089,0,0,0,.1.422,2.858,2.858,0,0,0,.157.408c0,.037.033.074.054.11l.054.11c.037.074.074.144.107.218a1.426,1.426,0,0,1,.11.335v.244a1.369,1.369,0,0,1-.5.853c-.067.064-.134.12-.2.181l-.107.087-.218.171-.208.167a4.213,4.213,0,0,0-.505.5,18.7,18.7,0,0,0-5.6.549,7.579,7.579,0,0,1-2.008.365,1,1,0,0,1-.87-.365,1.282,1.282,0,0,1-.09-.8,6.928,6.928,0,0,0-.536-3.28,1.824,1.824,0,0,0-.536-.78.756.756,0,0,0-.89-.047,8.344,8.344,0,0,1-.231,5.579,18.023,18.023,0,0,1-1.289,2.42c-.763,1.3-1.192,2.791-1.871,4.14.76,2.574.589,5.322,1,7.979a36.683,36.683,0,0,0,2.1,7.189,11.651,11.651,0,0,0,2.785,4.863,2.537,2.537,0,0,0,1.724.75,3.012,3.012,0,0,0,1.339-.509,5.245,5.245,0,0,0,1.135-.833,2.933,2.933,0,0,0,.335-.445,1.737,1.737,0,0,0,.251.629c.817-1.76,1.714-3.481,2.678-5.164a4.425,4.425,0,0,0,.8-.549.721.721,0,0,0,.047.181c-.044.161-.084.335-.127.485s-.094.311-.141.462-.07.224-.107.335-.09.268-.141.4-.107.291-.164.435-.077.208-.12.308c-.1.254-.211.5-.335.75a2.351,2.351,0,0,0,.288.117l.064.02a2.345,2.345,0,0,0,.264.067h.1a1.887,1.887,0,0,0,.2.02h.291a2.864,2.864,0,0,0,.706-.12l.131.536a19.127,19.127,0,0,1,.643,3.682,28.56,28.56,0,0,0,.09,4.217c.137.72.415,1.409.515,2.132a9.086,9.086,0,0,1-.037,2.045q-.234,2.463-.469,4.93a4.217,4.217,0,0,1-.422,1.74c-.231.4-.606.86-.372,1.258a8.378,8.378,0,0,1,1.175-.224c-.144.522-.274,1.048-.4,1.576a2.778,2.778,0,0,0-.094,1.215,8.151,8.151,0,0,1,.361,1.115,3.756,3.756,0,0,1-.589,1.694c-.589,1.426.037,3.032.669,4.445l1.848,4.19,1.516,3.437c.449,1,.9,2.042,1.339,3.072a99.74,99.74,0,0,1,4.826,14.472,1.727,1.727,0,0,0,.251.629c.254.335.72.442,1.1.649a2.053,2.053,0,0,1,.228,3.27c.211,2.517-1.673,4.95-2.644,7.28-2.236,5.355-1.831,11.4-2.6,17.156l.867-.505a1.074,1.074,0,0,1,.281.184q-.03.161-.07.335a5.244,5.244,0,0,1-.556,1.4,7.416,7.416,0,0,0-1.4,2.637,16.479,16.479,0,0,0,.11,1.811v.167c-.077-.074-.194-.067-.368.07a2.158,2.158,0,0,0-.546,1.027c-.151.432-.271.87-.392,1.309l-.448,1.546a17.975,17.975,0,0,1-.907,2.728,11.689,11.689,0,0,0-.8,1.848,5.733,5.733,0,0,0-.137,1.586,4.756,4.756,0,0,0,.218,1.506,3.742,3.742,0,0,0,2.192,2.078,10.292,10.292,0,0,0,3.046.576,2.559,2.559,0,0,0,.8-.023,2.172,2.172,0,0,0,.773-.4,6.449,6.449,0,0,0,2.269-4.686,6.921,6.921,0,0,0-.191-1.064c.087-1.9-.191-3.819-.047-5.717.03.218.06.432.094.646l.335,2.132a.445.445,0,0,0-.114-.2,4.9,4.9,0,0,0-.127,2.44,14.56,14.56,0,0,0,.7,2.366l.455,1.272a3.037,3.037,0,0,0,.542,1.054,3.005,3.005,0,0,0,1.586.743,17.486,17.486,0,0,0,3.842.669.87.87,0,0,0,.505-.094,2.457,2.457,0,0,0,.228-.191,2.244,2.244,0,0,1,.368-.214,2.43,2.43,0,0,0,1.178-1.4,2.2,2.2,0,0,0-.218-1.8,4.214,4.214,0,0,0-.519-.629l-2.289-2.427a14.42,14.42,0,0,0-1.118-1.185.418.418,0,0,0-.368-.12,11.806,11.806,0,0,1-.435-5.071c.033-.509.311-1.563.422-2.43a3.92,3.92,0,0,0,1.215-.669,1.834,1.834,0,0,0,.7-1.044,175.054,175.054,0,0,1,4.766-17.361c.174-.566.335-1.135.512-1.7.074-.241.141-.485.211-.73s.117-.395.174-.592c.094-.335.187-.669.278-1,.027-.09.05-.181.077-.271a.32.32,0,0,1,0-.054c.11-.412.218-.823.335-1.235.04-.161.084-.315.124-.475.131-.522.261-1.051.385-1.576a1.733,1.733,0,0,0,.047-.221.934.934,0,0,0-.037-.559h0a.727.727,0,0,0-.131-.187c-.037-.043-.077-.087-.117-.127a1.86,1.86,0,0,1-.127-.144,1.3,1.3,0,0,1-.234-.438v-.482c0-.147-.02-.335-.03-.509a5.355,5.355,0,0,1,.151-.669c.04-.131.084-.261.124-.392s.1-.335.154-.485a1.228,1.228,0,0,0,.3-.827q.311-.777.686-1.523a4.593,4.593,0,0,0,.612-1.647,6.534,6.534,0,0,0-.194-1.563c-.335-2.176.669-4.294,1.409-6.359a28.205,28.205,0,0,0,1.245-4.686,9.957,9.957,0,0,1,1.021-3.561,5.3,5.3,0,0,0,.549-.951,3.743,3.743,0,0,0,.147-1.078,11.892,11.892,0,0,1,1.054-4.274,2.71,2.71,0,0,0,.274-.833.305.305,0,0,0,0-.057v-.08l.171-.027a22.654,22.654,0,0,0,.385-5.757,8.779,8.779,0,0,0-2.942-5.556h.033a1.835,1.835,0,0,0,.843-1.633,3.183,3.183,0,0,0-1.185-2.487,1.188,1.188,0,0,1-.4-.415,1.262,1.262,0,0,1-.05-.539,2.755,2.755,0,0,0-1.7-2.557.639.639,0,0,1-.278-.161.669.669,0,0,1-.074-.489,2.989,2.989,0,0,0-1.443-2.731,4.713,4.713,0,0,0,.064-2.169A1.6,1.6,0,0,0,161.7,388.6c.589-1.607-.248-3.394-.027-5.091.1-.73.388-1.429.425-2.162a4.424,4.424,0,0,1,.194-1.968c.325-.582,1.091-1.038.894-1.673-.084-.271-.335-.459-.452-.723s.351-.669.592-.522c.114-.087.228-.177.335-.271a5.394,5.394,0,0,0,.2,1c.164.549.415,1.064.586,1.61a13.094,13.094,0,0,0,.756,2.5c.669,1.222,2.085,1.827,3.042,2.842.562.592.967,1.339,1.546,1.9a8.426,8.426,0,0,0,1.439,1.081l3.093,2.008a3.554,3.554,0,0,0,1.058.525,1.8,1.8,0,0,0,2.125-1.53,2.089,2.089,0,0,1-.76-.472.3.3,0,0,0,.131-.02,4.876,4.876,0,0,0,1.985-1.054,26.721,26.721,0,0,0,5.332-6.5c1.62-2.467,9.415-8.993,9.415-8.993v-2.644a9.518,9.518,0,0,0,2.6-2.212,2.869,2.869,0,0,0,.653-1.673A1.489,1.489,0,0,0,195.905,363.1Zm-64.83,6.342q-.224,1.443-.552,2.865a27.221,27.221,0,0,1-.924,3.236l-.12.335c-.11-.208-.221-.412-.335-.623-.251-.525-.455-1.071-.669-1.617l-1.292-3.481a1.63,1.63,0,0,1-.084-1.389,1.553,1.553,0,0,1,.736-.552,14.551,14.551,0,0,1,2.831-.961,7.753,7.753,0,0,0,.91-.241A13.723,13.723,0,0,0,131.075,369.441Zm1.429-4.351a.519.519,0,0,1,0-.505,1.152,1.152,0,0,1,.335-.234l.1-.067c-.134.278-.284.546-.432.817Zm2.678-3.785a7,7,0,0,0-1.031,1.058,11.045,11.045,0,0,0-.884,1.366,1,1,0,0,0-.368-1,2.129,2.129,0,0,1-.335-.228.7.7,0,0,1,.141-.984,2.042,2.042,0,0,1,1.041-.355l1.543-.228c-.047.13-.077.258-.11.385Zm14.445,112a5.6,5.6,0,0,0-.09-1.382h.569C149.949,472.372,149.788,472.844,149.627,473.309Z" transform="translate(-92.731 -245.591)" fill="url(#linear-gradient-12)"/>
    <path id="Path_1050" data-name="Path 1050" d="M166.038,338.924c-2.678.432-5.656,1.463-6.694,3.973-.773,1.9-.174,4.033.023,6.071a4.686,4.686,0,0,1-.057,1.617,5.665,5.665,0,0,1-1.419,2.222,11.785,11.785,0,0,0-2.038,2.858,4.155,4.155,0,0,0-.137,3.414,2.46,2.46,0,0,1,.335.9c.033.7-.7,1.138-1.232,1.583-2.008,1.673-1.924,4.686-1.941,7.306a37.054,37.054,0,0,1-3.477,15.459,4.723,4.723,0,0,0,5.278-.689,17.587,17.587,0,0,1-1.2,3.454c1.7.823,3.752-.529,4.605-2.216s.954-3.648,1.56-5.439,1.673-3.347,2.145-5.151a4.792,4.792,0,0,1,.609-1.727,4.546,4.546,0,0,1,1.071-.914,10.452,10.452,0,0,0,3.785-5.131,20.84,20.84,0,0,0,6.329.726A7.035,7.035,0,0,0,179,364.274c.5-.8.763-1.72,1.222-2.544.562-1,1.389-1.834,2.008-2.795a10.335,10.335,0,0,0,1.161-7.885,18.816,18.816,0,0,0-3.682-7.233C176.5,339.654,171.112,338.111,166.038,338.924Z" transform="translate(-110.714 -247.58)" fill="#303d5c"/>
    <path id="Path_1051" data-name="Path 1051" d="M145.1,430.616c-.151.957-.335,1.914-.549,2.862a28,28,0,0,1-.924,3.233,3.086,3.086,0,0,0-.291,1.486,2.7,2.7,0,0,0,.358.884c1.222,2.172,2.875,4.271,3.012,6.761a3.612,3.612,0,0,0,.335,1.8q1.416-3.049,3.126-5.944c1.192-2.008,2.517-4.063,2.858-6.386a11.966,11.966,0,0,0-.044-3.28,7.113,7.113,0,0,0-1.175-3.451c-.81-1.058-3.012-2.654-4.461-2.323C145.667,426.647,145.319,429.254,145.1,430.616Z" transform="translate(-106.68 -305.796)" fill="#6c63ff"/>
    <path id="Path_1052" data-name="Path 1052" d="M277.374,426.657a14.409,14.409,0,0,0,4.5-2.517,14.726,14.726,0,0,0,2.048-2.54l3.765-5.432a9.926,9.926,0,0,0,2.008-4.2,13.843,13.843,0,0,0,3.759-8.548c.027-.318.134-.736.452-.746a.559.559,0,0,1,.368.177,2.119,2.119,0,0,1,.669,1.8,2.488,2.488,0,0,1,1.593.281c.449.321.569,1.118.087,1.382a.689.689,0,0,1,.479.78,2.511,2.511,0,0,1,1.717.08c.509.288.7,1.131.211,1.446a1.493,1.493,0,0,1,.954,1.429,2.838,2.838,0,0,1-.653,1.673c-1.446,1.941-4,2.724-5.673,4.471a13.513,13.513,0,0,0-1.476,1.971l-4.856,7.39a26.642,26.642,0,0,1-5.328,6.49,4.877,4.877,0,0,1-1.985,1.054,2.186,2.186,0,0,1-2.085-.579,3.388,3.388,0,0,1-.606-2.078C277.243,429.2,277.457,427.913,277.374,426.657Z" transform="translate(-195.81 -290.13)" fill="#ee8e9e"/>
    <path id="Path_1053" data-name="Path 1053" d="M211.5,772.63a4.055,4.055,0,0,1,.519.629,2.2,2.2,0,0,1,.218,1.8,2.406,2.406,0,0,1-1.175,1.392,2.145,2.145,0,0,0-.372.214,2.118,2.118,0,0,1-.228.194.927.927,0,0,1-.505.094,17.86,17.86,0,0,1-3.839-.669,3.093,3.093,0,0,1-1.586-.743,3.035,3.035,0,0,1-.542-1.054l-.455-1.268a14.706,14.706,0,0,1-.7-2.363,4.847,4.847,0,0,1,.127-2.437.767.767,0,0,1,.167.5,5.455,5.455,0,0,0,.977,2.363,2.4,2.4,0,0,0,.382.479,2.43,2.43,0,0,0,1.141.479,14.155,14.155,0,0,0,2.43.311.669.669,0,0,0,.335-.04.6.6,0,0,0,.278-.335,1.479,1.479,0,0,0,0-1c-.221-.619-.827-1.024-1.115-1.613-.218-.435.08-.914.522-.546A13.921,13.921,0,0,1,209.2,770.2Z" transform="translate(-146.198 -533.466)" fill="#303d5c"/>
    <path id="Path_1054" data-name="Path 1054" d="M206.945,745.546c-.131,2.045-.221,4.254.9,5.971.4.616.944,1.135,1.4,1.714a2.042,2.042,0,0,1,.5,1.034,1.6,1.6,0,0,1-1.379,1.533,4.454,4.454,0,0,1-2.212-.335,5.329,5.329,0,0,1-1.878-.884,5.412,5.412,0,0,1-1.426-3.454L202.4,748.2a7,7,0,0,1,.415-4.418l.75-2.2a1,1,0,0,1,.335-.546.931.931,0,0,1,.572-.107c.716.037,2.527.3,2.875,1.058C207.638,742.651,207,744.759,206.945,745.546Z" transform="translate(-145.852 -515.174)" fill="#ee8e9e"/>
    <path id="Path_1055" data-name="Path 1055" d="M206.945,745.546c-.131,2.045-.221,4.254.9,5.971.4.616.944,1.135,1.4,1.714a2.042,2.042,0,0,1,.5,1.034,1.6,1.6,0,0,1-1.379,1.533,4.454,4.454,0,0,1-2.212-.335,5.329,5.329,0,0,1-1.878-.884,5.412,5.412,0,0,1-1.426-3.454L202.4,748.2a7,7,0,0,1,.415-4.418l.75-2.2a1,1,0,0,1,.335-.546.931.931,0,0,1,.572-.107c.716.037,2.527.3,2.875,1.058C207.638,742.651,207,744.759,206.945,745.546Z" transform="translate(-145.852 -515.174)" opacity="0.05"/>
    <path id="Path_1056" data-name="Path 1056" d="M224.841,563.522a.373.373,0,0,1,0,.057,2.507,2.507,0,0,1-.274.827,11.889,11.889,0,0,0-1.058,4.264,3.741,3.741,0,0,1-.147,1.078,5.357,5.357,0,0,1-.549.947,10,10,0,0,0-1.021,3.558,28.113,28.113,0,0,1-1.245,4.666c-.746,2.068-1.75,4.184-1.409,6.359a6.533,6.533,0,0,1,.194,1.563,4.539,4.539,0,0,1-.613,1.643,15.671,15.671,0,0,0-.669,1.523c-.218.556-.412,1.125-.582,1.7a2.309,2.309,0,0,0,.127,2.092,2.548,2.548,0,0,1,.378.458,1.229,1.229,0,0,1,0,.79q-.4,1.673-.85,3.347c-.234.87-.482,1.734-.736,2.6-1.881,6.316-4.016,12.568-5.275,19.037-.181.93-1.376,1.6-2.3,1.8a3.012,3.012,0,0,1-2.644-.706c-.064-.057-.124-.12-.181-.181a5.558,5.558,0,0,1-1.041-4.093c.335-6.657,3.682-12.752,5.275-19.221a37.186,37.186,0,0,0,1.038-7.136c.372-8.033.522-16.527-1.75-24.249-.472-1.606-1.031-3.42-.181-4.86a4.837,4.837,0,0,1,2.514-1.837,16.169,16.169,0,0,1,12.538.335,3.9,3.9,0,0,1-.02.482,4.94,4.94,0,0,0,.254,2.216,2.815,2.815,0,0,1,.228.944Z" transform="translate(-147.659 -393.767)" fill="#303d5c"/>
    <path id="Path_1057" data-name="Path 1057" d="M177.673,756.033l-.425,1.546a17.532,17.532,0,0,1-.9,2.721,11.685,11.685,0,0,0-.8,1.848,5.733,5.733,0,0,0-.137,1.586,4.736,4.736,0,0,0,.218,1.5,3.732,3.732,0,0,0,2.189,2.075,10.2,10.2,0,0,0,3.046.572,2.463,2.463,0,0,0,.8-.02,2.171,2.171,0,0,0,.773-.4,6.434,6.434,0,0,0,2.266-4.686,5.757,5.757,0,0,0-.238-1.2c-.11-.147-1.178.455-.72.961.669.743-1.3.358-2.306.294a8.668,8.668,0,0,1-1.309-.214l-1.627-.335c-.532-.114-1.145-.3-1.339-.807s.221-1.118.542-1.613a10.553,10.553,0,0,0,1.268-4.478c.037-.3.418-2.283-.368-1.674a2.219,2.219,0,0,0-.546,1.028C177.911,755.156,177.79,755.594,177.673,756.033Z" transform="translate(-128.009 -523.602)" fill="#303d5c"/>
    <path id="Path_1058" data-name="Path 1058" d="M217.539,654.09a2.279,2.279,0,0,1-.124-2.092c.074-.261.157-.519.244-.776l-6.386-2.162c-.023.576-.05,1.145-.077,1.714a36.988,36.988,0,0,1-1.034,7.139c-1.6,6.466-4.947,12.561-5.275,19.215-.077,1.533.087,3.247,1.222,4.277a3.012,3.012,0,0,0,2.641.71c.927-.2,2.119-.874,2.3-1.8,1.265-6.47,3.39-12.718,5.275-19.041q.88-2.942,1.586-5.931a1.218,1.218,0,0,0,0-.786A2.342,2.342,0,0,0,217.539,654.09Z" transform="translate(-147.62 -454.055)" opacity="0.05"/>
    <path id="Path_1059" data-name="Path 1059" d="M182.307,734.6a7.435,7.435,0,0,0-1.392,2.637,16.466,16.466,0,0,0,.11,1.807,5.875,5.875,0,0,1-.264,1.476q-.934,3.37-2.149,6.647a1.824,1.824,0,0,0-.171.9c.08.512.579.85,1.054,1.054a11.242,11.242,0,0,0,4.89.539,2.566,2.566,0,0,0,1.376-.335,2.382,2.382,0,0,0,.776-1.921c.114-2.075-.238-4.16,0-6.222.084-.753.241-1.493.358-2.239a6.518,6.518,0,0,0-.094-3.123,7.158,7.158,0,0,0-1.171-1.965,6.175,6.175,0,0,0-1.623-1.62c-.194-.114-.746-.469-.944-.248-.1.114-.057.418-.07.559a5.864,5.864,0,0,1-.114.643,5.3,5.3,0,0,1-.572,1.406Z" transform="translate(-130.033 -509.181)" fill="#ee8e9e"/>
    <path id="Path_1060" data-name="Path 1060" d="M212.157,566.08a1.757,1.757,0,0,0-.117,1.456c.211.884.566,1.73.853,2.591a36.042,36.042,0,0,1,1.1,4.712c.268,1.439.837,3.042.606,4.492a32,32,0,0,1,3.39,10.646c.131.954-1.988,2.186-1.948,3.146.08,1.914,1.607,2.068.482,3.595-.057.077.422,1.787.358,1.861-.459.552-1.041,1-1.533,1.509a11.6,11.6,0,0,0-1.617,2.366c-2.912,5.261-7.122,11.226-5.824,17.1a1.041,1.041,0,0,1-.556,1.054,2.878,2.878,0,0,1-1.232.284h-.2a5.558,5.558,0,0,1-1.041-4.093c.335-6.657,3.682-12.752,5.275-19.221a37.185,37.185,0,0,0,1.038-7.136c.372-8.033.522-16.527-1.75-24.249-.472-1.606-1.031-3.421-.181-4.86a4.837,4.837,0,0,1,2.514-1.837,16.169,16.169,0,0,1,12.538.335,3.892,3.892,0,0,1-.02.482,4.94,4.94,0,0,0,.254,2.216,2.815,2.815,0,0,1,.251.964s.114-1.3.11-1.275c-2.594.371-5.332,2.068-7.949,2.453a18.556,18.556,0,0,0-3.986.877A1.794,1.794,0,0,0,212.157,566.08Z" transform="translate(-147.613 -393.733)" opacity="0.05"/>
    <path id="Path_1061" data-name="Path 1061" d="M169.721,534.013q-.525,1.673-.927,3.38a2.828,2.828,0,0,0-.094,1.215,8.108,8.108,0,0,1,.361,1.111,3.757,3.757,0,0,1-.589,1.694c-.589,1.422.04,3.029.669,4.438l1.848,4.184,1.52,3.434q.678,1.531,1.339,3.069a99.516,99.516,0,0,1,4.823,14.455,1.78,1.78,0,0,0,.248.629c.258.335.723.442,1.1.649a2.046,2.046,0,0,1,.228,3.267c.214,2.514-1.673,4.94-2.641,7.27-2.236,5.355-1.831,11.38-2.6,17.136l.867-.509c.833.382.8,1.563,1.252,2.363.669,1.2,2.316,1.369,3.682,1.279a2.852,2.852,0,0,0,1.228-.284,1.038,1.038,0,0,0,.556-1.054c-1.3-5.874,2.912-11.838,5.827-17.1a11.59,11.59,0,0,1,1.613-2.366c.5-.522,1.074-.961,1.536-1.509,1.285-1.543,1.449-3.718,1.362-5.727a32.057,32.057,0,0,0-3.648-13.525c.234-1.446-.335-3.049-.6-4.488a35.235,35.235,0,0,0-1.108-4.709c-.288-.867-.639-1.71-.853-2.594a1.77,1.77,0,0,1,.117-1.456,1.8,1.8,0,0,1,.823-.532,18.556,18.556,0,0,1,3.986-.877l8.98-1.289a22.79,22.79,0,0,0,.382-5.753,8.846,8.846,0,0,0-6.336-7.4,1.359,1.359,0,0,0-1.171.077,46.723,46.723,0,0,0-23.777,1.523Z" transform="translate(-123.247 -375.918)" fill="#303d5c"/>
    <path id="Path_1062" data-name="Path 1062" d="M184.2,385.24a4.408,4.408,0,0,1-.392,2.57,4.036,4.036,0,0,1-1,1.128,7.7,7.7,0,0,1-2.959,1.469,3.2,3.2,0,0,0-1.771.773c-.629.76-.208,1.911.335,2.741a7.1,7.1,0,0,0,3.879,3.206c1.339.361,2.734.141,4.087.375.981.171,1.9.576,2.872.807a8.481,8.481,0,0,0,7.788-2.172,11.176,11.176,0,0,1-3.682-3.933,5.579,5.579,0,0,1-.281-3.762c.335-1.225,1.121-2.417.88-3.682a3.789,3.789,0,0,0-2.678-2.534,17.469,17.469,0,0,0-3.394-.673c-.633-.087-4.649-.974-4.9-.535-.141.248.693,1.714.8,2.038A7.751,7.751,0,0,1,184.2,385.24Z" transform="translate(-129.583 -275.645)" fill="#ee8e9e"/>
    <circle id="Ellipse_67" data-name="Ellipse 67" cx="8.146" cy="8.146" r="8.146" transform="translate(51.535 96.234)" fill="#ee8e9e"/>
    <path id="Path_1063" data-name="Path 1063" d="M166.789,413.1l5.526.93a20.674,20.674,0,0,0,4.127.415,11.5,11.5,0,0,1,2.276,0c.522.087,1.021.284,1.543.351.646.08,1.3-.044,1.948.04a6.218,6.218,0,0,1,3.1,1.777c1.068.93,2.216,2.008,2.3,3.431a1.041,1.041,0,0,1-.067.475,1.4,1.4,0,0,1-.412.428,13.463,13.463,0,0,0-2.306,3.173,12.227,12.227,0,0,1-2.744,2.962c-.241-.154-.7.251-.6.519s.368.452.455.723c.2.626-.576,1.088-.9,1.673a4.467,4.467,0,0,0-.191,1.965c-.04.733-.335,1.432-.425,2.159-.224,1.7.616,3.484.023,5.087a1.6,1.6,0,0,1,1.586,1.235,4.669,4.669,0,0,1-.064,2.169,2.982,2.982,0,0,1,1.446,2.724.469.469,0,0,0,.335.649,2.758,2.758,0,0,1,1.7,2.554,1.278,1.278,0,0,0,.05.542,1.2,1.2,0,0,0,.4.412,3.173,3.173,0,0,1,1.185,2.483,1.8,1.8,0,0,1-.84,1.63,14.887,14.887,0,0,1-3.712,1.1,32.663,32.663,0,0,1-3.591.639,33.079,33.079,0,0,1-3.347.1l-7.39-.03c-2.078,0-4.157,0-6.229-.157a17.556,17.556,0,0,0-5.787.137c-.234-.4.141-.857.372-1.255a4.177,4.177,0,0,0,.422-1.74l.469-4.923a9.061,9.061,0,0,0,.037-2.042c-.1-.726-.375-1.412-.515-2.132a28.922,28.922,0,0,1-.087-4.21,19.282,19.282,0,0,0-.646-3.682l-1.466-6.024a23.783,23.783,0,0,0-.72-3.012q-1.69-4.351-3.544-8.608a.914.914,0,0,1,.067-.763l1.222-2.189a13.851,13.851,0,0,1,1.118-1.784,7.028,7.028,0,0,1,4.123-2.53,7.269,7.269,0,0,1,4.8.71c.569.3,1.1.669,1.673.971A7.137,7.137,0,0,0,166.789,413.1Z" transform="translate(-111.412 -295.257)" fill="#6c63ff"/>
    <path id="Path_1064" data-name="Path 1064" d="M249.866,434.55l1.924,2.567a3.571,3.571,0,0,1,.448.71,11.581,11.581,0,0,1,.284,2.179,4.592,4.592,0,0,0,.566,1.3,29.282,29.282,0,0,0,2.447,3.638,6.3,6.3,0,0,0,1.523,1.5,2.5,2.5,0,0,0,2.048.365,1.262,1.262,0,0,0-.669.609,7.459,7.459,0,0,0-.475,4.766,4.819,4.819,0,0,0,.535,1.56,2.316,2.316,0,0,0,1.225,1.061,1.8,1.8,0,0,1-2.125,1.526,3.456,3.456,0,0,1-1.054-.525l-3.093-2.008a8.6,8.6,0,0,1-1.439-1.081c-.579-.576-.981-1.305-1.543-1.9-.957-1-2.363-1.62-3.039-2.838a13.049,13.049,0,0,1-.76-2.5c-.171-.546-.422-1.061-.586-1.61a7.2,7.2,0,0,1,.633-5.141A20.89,20.89,0,0,1,249.866,434.55Z" transform="translate(-174.883 -311.34)" fill="#6c63ff"/>
    <path id="Path_1065" data-name="Path 1065" d="M178.445,347.685a10.8,10.8,0,0,0-2.865-2.982,9.821,9.821,0,0,0-5.171-2.186,5.6,5.6,0,0,0-2.326.378c-.037-2.3-.606-3.832-2.045-3.6-2.678.432-5.656,1.463-6.694,3.973-.773,1.9-.174,4.033.023,6.071a4.686,4.686,0,0,1-.057,1.617,5.665,5.665,0,0,1-1.419,2.222,11.785,11.785,0,0,0-2.038,2.858,4.155,4.155,0,0,0-.137,3.414,2.46,2.46,0,0,1,.335.9c.033.7-.7,1.138-1.232,1.583-2.008,1.673-1.924,4.686-1.941,7.306A37.054,37.054,0,0,1,149.4,384.7a4.723,4.723,0,0,0,5.278-.689,17.588,17.588,0,0,1-1.2,3.454c1.7.823,3.752-.529,4.605-2.216s.954-3.648,1.56-5.439,1.673-3.347,2.145-5.151a4.792,4.792,0,0,1,.609-1.727,4.545,4.545,0,0,1,1.071-.914c1.754-1.258-.83-10.794-.144-12.842,1,.224,2.9-4.686,3.963-9.706a5.054,5.054,0,0,0,2.319.231,2.87,2.87,0,0,1,.827-.057,2.128,2.128,0,0,1,.723.295,18.3,18.3,0,0,0,2.47,1.268,13.778,13.778,0,0,0,5.593.479A5.573,5.573,0,0,0,178.445,347.685Z" transform="translate(-110.714 -247.95)" fill="#303d5c"/>
    <g id="Group_33" data-name="Group 33" transform="translate(38.686 91.335)" opacity="0.1">
      <path id="Path_1066" data-name="Path 1066" d="M150.357,384.726a36.953,36.953,0,0,0,3.494-15.446c.017-2.611-.07-5.643,1.941-7.306.536-.445,1.265-.887,1.232-1.583a2.514,2.514,0,0,0-.335-.9,4.207,4.207,0,0,1,.134-3.414,11.714,11.714,0,0,1,2.042-2.858A5.68,5.68,0,0,0,160.281,351a4.759,4.759,0,0,0,.06-1.617c-.2-2.038-.8-4.174-.023-6.071,1-2.43,3.812-3.471,6.423-3.926a1.47,1.47,0,0,0-.7-.047c-2.678.432-5.656,1.463-6.694,3.973-.773,1.9-.174,4.033.023,6.071A4.686,4.686,0,0,1,159.31,351a5.665,5.665,0,0,1-1.419,2.222,11.785,11.785,0,0,0-2.038,2.858,4.155,4.155,0,0,0-.137,3.414,2.46,2.46,0,0,1,.335.9c.033.7-.7,1.138-1.232,1.583-2.008,1.673-1.924,4.686-1.941,7.306a37.054,37.054,0,0,1-3.477,15.446,4.578,4.578,0,0,0,2.587.485,4.418,4.418,0,0,1-1.63-.485Z" transform="translate(-149.4 -339.313)"/>
      <path id="Path_1067" data-name="Path 1067" d="M162.514,476.354A17.587,17.587,0,0,0,163.7,472.9a4.464,4.464,0,0,1-1.158.766,17.513,17.513,0,0,1-1,2.678,2.544,2.544,0,0,0,1.573.2,2.5,2.5,0,0,1-.6-.191Z" transform="translate(-157.477 -428.189)"/>
      <path id="Path_1068" data-name="Path 1068" d="M208.067,349.367a5.613,5.613,0,0,1,1.553-.361h-.184a5.452,5.452,0,0,0-1.376.1C208.063,349.183,208.067,349.273,208.067,349.367Z" transform="translate(-188.427 -345.757)"/>
      <path id="Path_1069" data-name="Path 1069" d="M216.8,371.773a18.259,18.259,0,0,1-2.467-1.268,2.143,2.143,0,0,0-.726-.295,2.508,2.508,0,0,0-.756.047,3.1,3.1,0,0,1,.522.248,18.3,18.3,0,0,0,2.47,1.268,11.046,11.046,0,0,0,4.13.536,9.686,9.686,0,0,1-3.173-.536Z" transform="translate(-191.614 -359.862)"/>
      <path id="Path_1070" data-name="Path 1070" d="M205.617,369.71a1.042,1.042,0,0,1-.047.221,5.06,5.06,0,0,0,1.212.033A5.355,5.355,0,0,1,205.617,369.71Z" transform="translate(-186.77 -359.536)"/>
    </g>
    <path id="Path_1071" data-name="Path 1071" d="M133.441,424.378a2.992,2.992,0,0,1-.8,2.38,5.275,5.275,0,0,1-1.135.833,3.012,3.012,0,0,1-1.339.505,2.547,2.547,0,0,1-1.72-.746,11.5,11.5,0,0,1-2.785-4.86,36.555,36.555,0,0,1-2.1-7.182c-.4-2.651-.228-5.4-.987-7.969.669-1.339,1.1-2.832,1.871-4.13a19.234,19.234,0,0,0,1.289-2.417,8.367,8.367,0,0,0,.228-5.576.756.756,0,0,1,.89.047,1.844,1.844,0,0,1,.536.78,6.915,6.915,0,0,1,.536,3.277,1.272,1.272,0,0,0,.09.8,1,1,0,0,0,.87.368,7.854,7.854,0,0,0,2.008-.365,18.659,18.659,0,0,1,6.2-.512,2.988,2.988,0,0,1,1.208.295,1.125,1.125,0,0,1,.623,1l-4.953.726a2.042,2.042,0,0,0-1.041.355.7.7,0,0,0-.141.981,2.3,2.3,0,0,0,.335.228,1,1,0,0,1-.04,1.63,1.151,1.151,0,0,0-.335.234c-.2.271.067.629.154.957a1.208,1.208,0,0,1-.6,1.235,4.14,4.14,0,0,1-1.382.465,14.831,14.831,0,0,0-2.828.961,1.553,1.553,0,0,0-.736.552,1.654,1.654,0,0,0,.084,1.389l1.292,3.474a15.375,15.375,0,0,0,.669,1.617c.335.669.733,1.319,1.071,2.008a20.911,20.911,0,0,1,.807,1.945C131.918,421.436,133.22,422.507,133.441,424.378Z" transform="translate(-92.864 -285.089)" fill="#ee8e9e"/>
    <rect id="Rectangle_160" data-name="Rectangle 160" width="15.439" height="14.947" transform="translate(85.275 116.75)" fill="url(#linear-gradient)"/>
    <rect id="Rectangle_161" data-name="Rectangle 161" width="14.907" height="14.432" transform="translate(85.543 117.008)" fill="#7cfcff"/>
    <path id="Path_1072" data-name="Path 1072" d="M325.066,410.924a1.54,1.54,0,0,0-.566.827.335.335,0,0,0,.13.375.375.375,0,0,0,.228,0,2.125,2.125,0,0,0,1-.472,1.006,1.006,0,0,0-.3.241.335.335,0,0,0-.04.361.472.472,0,0,0,.335.171,3.2,3.2,0,0,0,1.436-.067,1.971,1.971,0,0,0-.6.351.8.8,0,0,0-.271.619.308.308,0,0,0,.107.231.385.385,0,0,0,.161.057,3.869,3.869,0,0,0,1.339,0,.686.686,0,0,0,.562-.335.843.843,0,0,0-.131-.646,3.611,3.611,0,0,1-.335-1.633.643.643,0,0,0-.047-.335.6.6,0,0,0-.3-.218,2.583,2.583,0,0,0-1.64-.335A3.45,3.45,0,0,0,325.066,410.924Z" transform="translate(-227.2 -295.053)" fill="#ee8e9e"/>
  </g>
</svg>
