<svg xmlns="http://www.w3.org/2000/svg" width="237.714" height="260.956" viewBox="0 0 237.714 260.956">
  <g id="Group_6" data-name="Group 6" transform="translate(-17.6 0)">
    <circle id="Ellipse_24" data-name="Ellipse 24" cx="5.858" cy="5.858" r="5.858" transform="translate(132.483 83.314)" fill="#6c63ff"/>
    <circle id="Ellipse_25" data-name="Ellipse 25" cx="5.858" cy="5.858" r="5.858" transform="translate(132.483 44.512)" fill="#6c63ff"/>
    <circle id="Ellipse_26" data-name="Ellipse 26" cx="5.858" cy="5.858" r="5.858" transform="translate(132.483 5.709)" fill="#6c63ff"/>
    <path id="Path_33" data-name="Path 33" d="M685.223,80.112a1.766,1.766,0,0,0-1.764,1.764v19.607a1.766,1.766,0,0,0,1.764,1.764H779.1a1.766,1.766,0,0,0,1.764-1.764V81.876a1.766,1.766,0,0,0-1.764-1.764Z" transform="translate(-525.549 -80.112)" fill="#e6e6e6"/>
    <path id="Path_34" data-name="Path 34" d="M688.38,84.011a1.024,1.024,0,0,0-1.023,1.023v18.339a1.024,1.024,0,0,0,1.023,1.023h92.609a1.024,1.024,0,0,0,1.022-1.023V85.034a1.024,1.024,0,0,0-1.022-1.023Z" transform="translate(-528.072 -82.636)" fill="#fff"/>
    <path id="Path_35" data-name="Path 35" d="M789.531,121.443a1.662,1.662,0,0,0,0-3.323H711.2a1.662,1.662,0,0,0,0,3.323Z" transform="translate(-542.429 -104.713)" fill="#e6e6e6"/>
    <path id="Path_36" data-name="Path 36" d="M744.906,100.98a1.662,1.662,0,1,0,0-3.323H711.2a1.662,1.662,0,1,0,0,3.323Z" transform="translate(-542.429 -91.468)" fill="#6c63ff"/>
    <path id="Path_37" data-name="Path 37" d="M685.223,190.112a1.766,1.766,0,0,0-1.764,1.764v19.607a1.766,1.766,0,0,0,1.764,1.764H779.1a1.766,1.766,0,0,0,1.764-1.764V191.876a1.766,1.766,0,0,0-1.764-1.764Z" transform="translate(-525.549 -151.309)" fill="#e6e6e6"/>
    <path id="Path_38" data-name="Path 38" d="M688.38,194.011a1.024,1.024,0,0,0-1.023,1.023v18.339a1.024,1.024,0,0,0,1.023,1.023h92.609a1.024,1.024,0,0,0,1.022-1.023V195.034a1.024,1.024,0,0,0-1.022-1.023Z" transform="translate(-528.072 -153.833)" fill="#fff"/>
    <path id="Path_39" data-name="Path 39" d="M789.531,231.443a1.662,1.662,0,0,0,0-3.323H711.2a1.662,1.662,0,1,0,0,3.323Z" transform="translate(-542.429 -175.91)" fill="#e6e6e6"/>
    <path id="Path_40" data-name="Path 40" d="M744.906,210.979a1.662,1.662,0,1,0,0-3.323H711.2a1.662,1.662,0,1,0,0,3.323Z" transform="translate(-542.429 -162.665)" fill="#6c63ff"/>
    <path id="Path_41" data-name="Path 41" d="M685.223,300.112a1.766,1.766,0,0,0-1.764,1.764v19.607a1.766,1.766,0,0,0,1.764,1.764H779.1a1.766,1.766,0,0,0,1.764-1.764V301.876a1.766,1.766,0,0,0-1.764-1.764Z" transform="translate(-525.549 -222.507)" fill="#e6e6e6"/>
    <path id="Path_42" data-name="Path 42" d="M688.38,304.011a1.024,1.024,0,0,0-1.023,1.023v18.339a1.024,1.024,0,0,0,1.023,1.023h92.609a1.024,1.024,0,0,0,1.022-1.023V305.034a1.024,1.024,0,0,0-1.022-1.023Z" transform="translate(-528.072 -225.031)" fill="#fff"/>
    <path id="Path_43" data-name="Path 43" d="M789.531,341.443a1.662,1.662,0,0,0,0-3.323H711.2a1.662,1.662,0,1,0,0,3.323Z" transform="translate(-542.429 -247.108)" fill="#e6e6e6"/>
    <path id="Path_44" data-name="Path 44" d="M744.906,320.98a1.662,1.662,0,1,0,0-3.323H711.2a1.662,1.662,0,0,0,0,3.323Z" transform="translate(-542.429 -233.863)" fill="#6c63ff"/>
    <path id="Path_45" data-name="Path 45" d="M385.138,508.048h0a4.9,4.9,0,0,1-3.945-6.224l3.714-12.629,5.644,1.058.243,12.861a4.9,4.9,0,0,1-5.656,4.934Z" transform="translate(-329.779 -344.891)" fill="#9f616a"/>
    <path id="Path_46" data-name="Path 46" d="M192.25,516.973l-7.055-1.058,1.764-68.786-9.877,29.631-5.291,41.624-6.7-1.764-1.411-43.388,7.76-51.149,38.8,8.819Z" transform="translate(-104.315 -273.193)" fill="#2f2e41"/>
    <path id="Path_47" data-name="Path 47" d="M466.392,784.7h0a5.185,5.185,0,0,1-5.16-5.693l1.1-11.138a1.635,1.635,0,0,1,.851-1.277c2.08-1.122,4.218-.85,6.407.614a1.624,1.624,0,0,1,.706,1.158l1.25,10.539a5.185,5.185,0,0,1-5.149,5.8Z" transform="translate(-381.696 -523.991)" fill="#2f2e41"/>
    <path id="Path_48" data-name="Path 48" d="M388.65,781.337h0a4.671,4.671,0,0,1-2.267-6.992l7.526-11.187c2.713-1.947,4.349-1,4.985,2.639l1.521-3.812,1.146,1.251a3.647,3.647,0,0,1,.193,4.7l-7.806,11.88A4.671,4.671,0,0,1,388.65,781.337Z" transform="translate(-332.752 -521.454)" fill="#2f2e41"/>
    <circle id="Ellipse_27" data-name="Ellipse 27" cx="10.582" cy="10.582" r="10.582" transform="translate(92.873 61.408)" fill="#9f616a"/>
    <path id="Path_49" data-name="Path 49" d="M515.079,310.716l-17.99-3.527c2.317-4.942,4.173-6.615,2.117-11.993h14.463C512.393,300.766,513.625,306,515.079,310.716Z" transform="translate(-404.921 -219.325)" fill="#9f616a"/>
    <path id="Path_50" data-name="Path 50" d="M464.419,396.211l-42.33-11.993c8.479-18.661,10.255-39.149,7.741-60.807a3.919,3.919,0,0,1,3.58-4.362c5.522-.455,11.278-1.039,17.252-1.854l6.7,4.586,7.76-1.764c2.49,1.207,5,2.211,7.262,3.212a9.079,9.079,0,0,1,4.936,11.166C470.425,355.224,465.808,375.857,464.419,396.211Z" transform="translate(-356.378 -233.564)" fill="#e6e6e6"/>
    <path id="Path_51" data-name="Path 51" d="M396.2,383.9l-8.113-1.058,19.22-55.38c.978-2.817,3.4-4.342,6.354-4.763l2.822.353-2.117,32.806Z" transform="translate(-334.371 -237.124)" fill="#e6e6e6"/>
    <path id="Path_52" data-name="Path 52" d="M565.258,382.7h0a6.431,6.431,0,0,1-6.432-3.945l-7.737-18.627,6.35-22.929,1.678,1.068q.243.154.479.316a15.1,15.1,0,0,1,6.2,15.009l-1.656,9.71,6.831,14.666A6.43,6.43,0,0,1,565.258,382.7Z" transform="translate(-439.873 -246.509)" fill="#e6e6e6"/>
    <path id="Path_53" data-name="Path 53" d="M509.695,239.709h0a11.237,11.237,0,0,1,5.134,1.512c.36.209.194.965.526,1.211.419.31,1.328.122,1.7.485a11.262,11.262,0,0,1,3.349,9.074l-.591,5.871-1.393-1.523a14.52,14.52,0,0,0-9.684-4.754q-.237-.016-.475-.025l1.072-1.875-1.863,1.863a18.14,18.14,0,0,0-2.538.207l1.425-2.494-2.735,2.735h0a7.311,7.311,0,0,0-5.109,4.167l-.3.673-.34-5.6a11.29,11.29,0,0,1,11.824-11.523Z" transform="translate(-405.425 -183.403)" fill="#2f2e41"/>
    <ellipse id="Ellipse_28" data-name="Ellipse 28" cx="0.85" cy="2.019" rx="0.85" ry="2.019" transform="translate(113.257 72.018)" fill="#9f616a"/>
    <ellipse id="Ellipse_29" data-name="Ellipse 29" cx="0.85" cy="2.019" rx="0.85" ry="2.019" transform="translate(92.008 71.38)" fill="#9f616a"/>
    <path id="Path_54" data-name="Path 54" d="M603.61,364.385h0a4.9,4.9,0,0,1,3.4,6.537L602.24,383.19l-5.534-1.534.85-12.835a4.9,4.9,0,0,1,6.055-4.436Z" transform="translate(-469.398 -264.017)" fill="#9f616a"/>
    <path id="Path_55" data-name="Path 55" d="M341.5,345.9l-8.819-5.644,7.408-15.168,9.171,3.527-4.586,13.4Z" transform="translate(-213.7 -210.41)" fill="#e6e6e6"/>
    <path id="Path_56" data-name="Path 56" d="M152.432,738.413H45.288v-.743H152.566Z" transform="translate(-27.688 -477.457)" fill="#3f3d56"/>
  </g>
</svg>
