<svg xmlns="http://www.w3.org/2000/svg" width="360.506" height="193.336" viewBox="0 0 360.506 193.336">
  <g id="Group_5" data-name="Group 5" transform="translate(0 0)">
    <rect id="Rectangle_56" data-name="Rectangle 56" width="197.556" height="142.149" transform="translate(125.255 23.828)" fill="#e6e8ec"/>
    <path id="Path_15" data-name="Path 15" d="M704.64,337.449h-235.7V159.421h235.7Zm-234.8-.908H703.732V160.33H469.845Z" transform="translate(-344.136 -156.673)" fill="#fff"/>
    <circle id="Ellipse_20" data-name="Ellipse 20" cx="4.542" cy="4.542" r="4.542" transform="translate(139.037 8.198)" fill="#3f3d56"/>
    <circle id="Ellipse_21" data-name="Ellipse 21" cx="4.542" cy="4.542" r="4.542" transform="translate(151.324 8.198)" fill="#3f3d56"/>
    <circle id="Ellipse_22" data-name="Ellipse 22" cx="4.542" cy="4.542" r="4.542" transform="translate(163.611 8.198)" fill="#3f3d56"/>
    <rect id="Rectangle_57" data-name="Rectangle 57" width="96.918" height="1.089" transform="translate(179.493 52.045)" fill="#3f3d56"/>
    <rect id="Rectangle_58" data-name="Rectangle 58" width="96.918" height="1.089" transform="translate(179.493 58.615)" fill="#3f3d56"/>
    <rect id="Rectangle_59" data-name="Rectangle 59" width="96.918" height="1.089" transform="translate(179.493 65.184)" fill="#3f3d56"/>
    <rect id="Rectangle_60" data-name="Rectangle 60" width="96.918" height="1.089" transform="translate(179.493 78.661)" fill="#3f3d56"/>
    <rect id="Rectangle_61" data-name="Rectangle 61" width="96.918" height="1.089" transform="translate(179.493 85.231)" fill="#3f3d56"/>
    <rect id="Rectangle_62" data-name="Rectangle 62" width="96.918" height="1.089" transform="translate(179.493 91.801)" fill="#3f3d56"/>
    <path id="Path_16" data-name="Path 16" d="M692.408,533.479a24.07,24.07,0,1,1,24.07-24.07A24.07,24.07,0,0,1,692.408,533.479Zm0-47.232a23.162,23.162,0,1,0,23.162,23.162A23.162,23.162,0,0,0,692.408,486.247Z" transform="translate(-464.257 -381.917)" fill="#6c63ff"/>
    <path id="Path_17" data-name="Path 17" d="M619.969,376.715h-10.9v-10.9h-1.817v10.9h-10.9v1.816h10.9v10.9h1.817v-10.9h10.9Z" transform="translate(-379.878 -249.331)" fill="#6c63ff"/>
    <path id="Path_18" data-name="Path 18" d="M205.83,584.925s-9.537,10.445-10.9,34.516-1.817,26.795-1.817,26.795h34.061l6.358-16.349,7.266,16.349h32.245s3.633-49.957,0-51.319S205.83,584.925,205.83,584.925Z" transform="translate(-159.803 -452.9)" fill="#2f2e41"/>
    <circle id="Ellipse_23" data-name="Ellipse 23" cx="16.349" cy="16.349" r="16.349" transform="translate(72.6 7.29)" fill="#ffb8b8"/>
    <path id="Path_19" data-name="Path 19" d="M303.725,217.966l-3.179,29.066,22.253,2.725s.908-25.432,1.362-26.341S303.725,217.966,303.725,217.966Z" transform="translate(-229.41 -193.191)" fill="#ffb8b8"/>
    <path id="Path_20" data-name="Path 20" d="M448.171,382.132l9.537,18.62s12.716,18.62,15.9,34.061,6.358,22.708,6.358,22.708,16.349,23.616,7.266,27.7-16.8-26.341-16.8-26.341l-24.979-45.415-14.533-23.616Z" transform="translate(-312.941 -317.688)" fill="#ffb8b8"/>
    <path id="Path_21" data-name="Path 21" d="M154.237,394.2l-3.179,13.625-29.974,39.511s-24.07,18.166-14.079,22.253,22.253-16.349,22.253-16.349l37.24-32.7L164.682,394.2Z" transform="translate(-104.577 -322.056)" fill="#ffb8b8"/>
    <path id="Path_22" data-name="Path 22" d="M249.943,277.439s13.487,5.654,23.547-1.26c0,0,24.593,3.985,25.955,5.348s-1.362,42.236-1.362,42.236l-5.45,23.162s7.721,35.424-3.633,44.507l2.271,12.262s-50.411,3.633-70.393-8.629l3.633-12.262,9.537-38.6-5.9-53.59S232.686,278.347,249.943,277.439Z" transform="translate(-177.121 -244.463)" fill="#d0cde1"/>
    <path id="Path_23" data-name="Path 23" d="M394.407,292.812,406.215,291s5.9.908,11.354,12.262S428.923,329.6,428.923,329.6l-20.437,9.083-16.8-26.341Z" transform="translate(-287.618 -247.868)" fill="#d0cde1"/>
    <path id="Path_24" data-name="Path 24" d="M236.892,308.5l-2.725,2.271s-3.633,13.17-3.633,22.253v12.262l16.349,1.817Z" transform="translate(-183.144 -259.433)" fill="#d0cde1"/>
    <path id="Path_25" data-name="Path 25" d="M300.934,180.192a8.011,8.011,0,0,1-2-5.4,17.13,17.13,0,0,0-.324-5.107,50.42,50.42,0,0,1,1.723-7.768c1.027-2.85.161-3.842,4.576-5.4s1.6-7.183,14.621-2.7a3.561,3.561,0,0,0,3.873.792c2.4-.88,3.851,2.421,3.851,2.421s1.5-1.23,2.34.049,4.909-1.636,6.4,7.666-3.629,17.6-3.629,17.6-.719-14.885-9.172-15.155-18.013-3.472-19.2,2.8A45.746,45.746,0,0,1,300.934,180.192Z" transform="translate(-228.285 -152.116)" fill="#2f2e41"/>
    <rect id="Rectangle_63" data-name="Rectangle 63" width="170.761" height="61.311" transform="translate(3.564 101.37)" fill="#3f3d56"/>
    <path id="Path_26" data-name="Path 26" d="M238.142,572.647l-.056.011c-.448.082-.9.154-1.359.2-.154.018-.313.032-.468.045s-.313.027-.472.036c-.259.018-.522.027-.786.032-.114,0-.232,0-.345,0h-.068c-.141,0-.282,0-.422,0l-.363-.014c-.068,0-.136,0-.2-.009A19.075,19.075,0,1,1,244.193,537.4a19.074,19.074,0,0,0,0,33.008A18.991,18.991,0,0,1,238.142,572.647Z" transform="translate(-173.8 -414.693)" fill="#6c63ff"/>
    <path id="Path_27" data-name="Path 27" d="M308.19,568.832a18.63,18.63,0,0,0,2.307,1.576,18.975,18.975,0,0,1-9.537,2.57h-.245A19.075,19.075,0,1,1,310.5,537.4a19.038,19.038,0,0,0-2.307,31.432Z" transform="translate(-217.539 -414.693)" fill="#6c63ff"/>
    <path id="Path_28" data-name="Path 28" d="M386.375,553.905A19.074,19.074,0,1,1,367.3,534.831a19.074,19.074,0,0,1,19.074,19.074Z" transform="translate(-259.922 -414.694)" fill="#6c63ff"/>
    <path id="Path_29" data-name="Path 29" d="M393.846,590.725a12.778,12.778,0,0,1-.259,2.57,19.111,19.111,0,0,1-14.923,0,12.778,12.778,0,0,1-.259-2.57c0-4.487,2.284-8.279,5.432-9.546a5.9,5.9,0,1,1,4.578,0C391.561,582.446,393.846,586.238,393.846,590.725Z" transform="translate(-278.922 -436.987)" fill="#fff"/>
    <path id="Path_30" data-name="Path 30" d="M326.248,590.668v.059a19.5,19.5,0,0,1-.454,3.179c-2.221.945-4.464.876-7.021.908h-.245a19,19,0,0,1-7.462-1.517,1.968,1.968,0,0,1-.041-.236,12.228,12.228,0,0,1-.218-2.334c0-4.487,2.284-8.279,5.432-9.546a5.9,5.9,0,0,1,2.289-11.345A5.7,5.7,0,0,1,319.9,570a19.054,19.054,0,0,0,6.349,20.668Z" transform="translate(-235.883 -436.989)" fill="#fff"/>
    <path id="Path_31" data-name="Path 31" d="M261.055,590.991a12.254,12.254,0,0,1-.25,2.307,19.006,19.006,0,0,1-5.323,1.4c-.154.018-.313.032-.468.045s-.313.027-.472.036c-.259.018-.522.027-.786.032-.054,0-.114,0-.168,0h-.245c-.141,0-.282,0-.422,0l-.363-.014c-.068,0-.136,0-.2-.009a18.905,18.905,0,0,1-6.476-1.49.077.077,0,0,1,0-.032,1.474,1.474,0,0,1-.036-.2,12.223,12.223,0,0,1-.218-2.334c0-4.487,2.284-8.279,5.432-9.546a5.9,5.9,0,0,1,2.289-11.345,5.784,5.784,0,0,1,.976.082,19.055,19.055,0,0,0,6.735,21.073Z" transform="translate(-192.556 -436.989)" fill="#fff"/>
  </g>
</svg>
