<svg xmlns="http://www.w3.org/2000/svg" width="337.243" height="201.478" viewBox="0 0 337.243 201.478">
  <g id="Group_30" data-name="Group 30" transform="translate(-18.757 -187.689)">
    <rect id="Rectangle_1" data-name="Rectangle 1" width="26.703" height="17.802" transform="translate(31.024 200.388)" fill="#6c63ff"/>
    <rect id="Rectangle_2" data-name="Rectangle 2" width="26.703" height="17.802" transform="translate(57.504 200.388)" fill="#e6e6e6"/>
    <rect id="Rectangle_3" data-name="Rectangle 3" width="26.703" height="17.802" transform="translate(83.984 200.388)" fill="#6c63ff" opacity="0.8"/>
    <rect id="Rectangle_4" data-name="Rectangle 4" width="26.703" height="17.802" transform="translate(110.465 200.388)" fill="#6c63ff"/>
    <rect id="Rectangle_5" data-name="Rectangle 5" width="26.703" height="17.802" transform="translate(136.945 200.388)" fill="#6c63ff" opacity="0.8"/>
    <rect id="Rectangle_6" data-name="Rectangle 6" width="26.703" height="17.802" transform="translate(163.425 200.388)" fill="#e6e6e6"/>
    <rect id="Rectangle_7" data-name="Rectangle 7" width="26.703" height="17.802" transform="translate(216.386 200.388)" fill="#e6e6e6"/>
    <rect id="Rectangle_8" data-name="Rectangle 8" width="26.703" height="17.802" transform="translate(31.024 217.3)" fill="#6c63ff" opacity="0.8"/>
    <rect id="Rectangle_9" data-name="Rectangle 9" width="26.703" height="17.802" transform="translate(57.504 217.3)" fill="#6c63ff"/>
    <rect id="Rectangle_10" data-name="Rectangle 10" width="26.703" height="17.802" transform="translate(110.465 217.3)" fill="#6c63ff" opacity="0.8"/>
    <rect id="Rectangle_11" data-name="Rectangle 11" width="26.703" height="17.802" transform="translate(136.945 217.3)" fill="#6c63ff"/>
    <rect id="Rectangle_12" data-name="Rectangle 12" width="26.703" height="17.802" transform="translate(163.425 217.3)" fill="#6c63ff" opacity="0.8"/>
    <rect id="Rectangle_13" data-name="Rectangle 13" width="26.703" height="17.802" transform="translate(216.386 217.3)" fill="#6c63ff"/>
    <rect id="Rectangle_14" data-name="Rectangle 14" width="26.703" height="17.802" transform="translate(31.024 234.212)" fill="#e6e6e6"/>
    <rect id="Rectangle_15" data-name="Rectangle 15" width="26.703" height="17.802" transform="translate(57.504 234.212)" fill="#6c63ff" opacity="0.8"/>
    <rect id="Rectangle_16" data-name="Rectangle 16" width="26.703" height="17.802" transform="translate(83.984 234.212)" fill="#e6e6e6"/>
    <rect id="Rectangle_17" data-name="Rectangle 17" width="26.703" height="17.802" transform="translate(110.465 234.212)" fill="#6c63ff"/>
    <rect id="Rectangle_18" data-name="Rectangle 18" width="26.703" height="17.802" transform="translate(136.945 234.212)" fill="#6c63ff" opacity="0.8"/>
    <rect id="Rectangle_19" data-name="Rectangle 19" width="26.703" height="17.802" transform="translate(163.425 234.212)" fill="#e6e6e6"/>
    <rect id="Rectangle_20" data-name="Rectangle 20" width="26.703" height="17.802" transform="translate(189.905 234.212)" fill="#6c63ff"/>
    <rect id="Rectangle_21" data-name="Rectangle 21" width="26.703" height="17.802" transform="translate(31.024 251.124)" fill="#6c63ff"/>
    <rect id="Rectangle_22" data-name="Rectangle 22" width="26.703" height="17.802" transform="translate(57.504 251.124)" fill="#e6e6e6"/>
    <rect id="Rectangle_23" data-name="Rectangle 23" width="26.703" height="17.802" transform="translate(163.425 251.124)" fill="#6c63ff" opacity="0.8"/>
    <rect id="Rectangle_24" data-name="Rectangle 24" width="26.703" height="17.802" transform="translate(31.024 268.036)" fill="#6c63ff" opacity="0.8"/>
    <rect id="Rectangle_25" data-name="Rectangle 25" width="26.703" height="17.802" transform="translate(57.504 268.036)" fill="#6c63ff"/>
    <rect id="Rectangle_26" data-name="Rectangle 26" width="26.703" height="17.802" transform="translate(83.984 268.036)" fill="#e6e6e6"/>
    <rect id="Rectangle_27" data-name="Rectangle 27" width="26.703" height="17.802" transform="translate(110.465 268.036)" fill="#a49ff3" opacity="0.8"/>
    <rect id="Rectangle_28" data-name="Rectangle 28" width="26.703" height="17.802" transform="translate(136.945 268.036)" fill="#6c63ff" opacity="0.8"/>
    <rect id="Rectangle_29" data-name="Rectangle 29" width="26.703" height="17.802" transform="translate(31.024 284.947)" fill="#6c63ff"/>
    <rect id="Rectangle_30" data-name="Rectangle 30" width="26.703" height="17.802" transform="translate(57.504 284.947)" fill="#e6e6e6"/>
    <rect id="Rectangle_31" data-name="Rectangle 31" width="26.703" height="17.802" transform="translate(83.984 284.947)" fill="#6c63ff" opacity="0.8"/>
    <rect id="Rectangle_32" data-name="Rectangle 32" width="26.703" height="17.802" transform="translate(110.465 284.947)" fill="#6c63ff"/>
    <rect id="Rectangle_33" data-name="Rectangle 33" width="26.703" height="17.802" transform="translate(31.024 302.436)" fill="#e6e6e6"/>
    <rect id="Rectangle_34" data-name="Rectangle 34" width="26.703" height="17.802" transform="translate(57.504 302.436)" fill="#6c63ff" opacity="0.8"/>
    <rect id="Rectangle_35" data-name="Rectangle 35" width="26.703" height="17.802" transform="translate(83.984 302.436)" fill="#e6e6e6"/>
    <rect id="Rectangle_36" data-name="Rectangle 36" width="26.703" height="17.802" transform="translate(83.984 217.3)" fill="#6c63ff"/>
    <rect id="Rectangle_37" data-name="Rectangle 37" width="26.703" height="17.802" transform="translate(189.905 200.388)" fill="#6c63ff"/>
    <rect id="Rectangle_38" data-name="Rectangle 38" width="26.703" height="17.802" transform="translate(136.945 251.124)" fill="#6c63ff"/>
    <rect id="Rectangle_39" data-name="Rectangle 39" width="26.703" height="17.802" transform="translate(110.465 251.124)" fill="#e6e6e6"/>
    <rect id="Rectangle_40" data-name="Rectangle 40" width="26.703" height="17.802" transform="translate(83.984 251.124)" fill="#6c63ff" opacity="0.8"/>
    <circle id="Ellipse_1" data-name="Ellipse 1" cx="4.041" cy="4.041" r="4.041" transform="translate(18.757 205.295)" fill="#3f3d56"/>
    <circle id="Ellipse_2" data-name="Ellipse 2" cx="4.041" cy="4.041" r="4.041" transform="translate(40.335 187.689)" fill="#e6e6e6"/>
    <circle id="Ellipse_3" data-name="Ellipse 3" cx="4.041" cy="4.041" r="4.041" transform="translate(66.815 187.689)" fill="#e6e6e6"/>
    <circle id="Ellipse_4" data-name="Ellipse 4" cx="4.041" cy="4.041" r="4.041" transform="translate(93.295 187.689)" fill="#e6e6e6"/>
    <circle id="Ellipse_5" data-name="Ellipse 5" cx="4.041" cy="4.041" r="4.041" transform="translate(119.775 187.689)" fill="#e6e6e6"/>
    <circle id="Ellipse_6" data-name="Ellipse 6" cx="4.041" cy="4.041" r="4.041" transform="translate(146.256 187.689)" fill="#e6e6e6"/>
    <circle id="Ellipse_7" data-name="Ellipse 7" cx="4.041" cy="4.041" r="4.041" transform="translate(172.736 187.689)" fill="#e6e6e6"/>
    <circle id="Ellipse_8" data-name="Ellipse 8" cx="4.041" cy="4.041" r="4.041" transform="translate(199.216 187.689)" fill="#e6e6e6"/>
    <circle id="Ellipse_9" data-name="Ellipse 9" cx="4.041" cy="4.041" r="4.041" transform="translate(225.697 187.689)" fill="#e6e6e6"/>
    <circle id="Ellipse_10" data-name="Ellipse 10" cx="4.041" cy="4.041" r="4.041" transform="translate(252.177 187.689)" fill="#e6e6e6"/>
    <circle id="Ellipse_11" data-name="Ellipse 11" cx="4.041" cy="4.041" r="4.041" transform="translate(18.757 222.16)" fill="#3f3d56"/>
    <circle id="Ellipse_12" data-name="Ellipse 12" cx="4.041" cy="4.041" r="4.041" transform="translate(18.757 239.072)" fill="#3f3d56"/>
    <circle id="Ellipse_13" data-name="Ellipse 13" cx="4.041" cy="4.041" r="4.041" transform="translate(18.757 255.984)" fill="#3f3d56"/>
    <circle id="Ellipse_14" data-name="Ellipse 14" cx="4.041" cy="4.041" r="4.041" transform="translate(18.757 272.896)" fill="#3f3d56"/>
    <circle id="Ellipse_15" data-name="Ellipse 15" cx="4.041" cy="4.041" r="4.041" transform="translate(18.757 289.807)" fill="#3f3d56"/>
    <circle id="Ellipse_16" data-name="Ellipse 16" cx="4.041" cy="4.041" r="4.041" transform="translate(18.757 307.296)" fill="#3f3d56"/>
    <rect id="Rectangle_41" data-name="Rectangle 41" width="26.703" height="17.802" transform="translate(189.905 217.3)" fill="#e6e6e6"/>
    <rect id="Rectangle_42" data-name="Rectangle 42" width="26.703" height="17.802" transform="translate(242.866 200.388)" fill="#6c63ff" opacity="0.8"/>
    <path id="Path_1" data-name="Path 1" d="M769.293,541.885H676.269v-.76H769.43Z" transform="translate(-413.43 -158.131)" fill="#3f3d56"/>
    <path id="Path_2" data-name="Path 2" d="M762.361,521.7l4.872-.541V512.5l-5.233.18Z" transform="translate(-468.219 -139.838)" fill="#ffb8b8"/>
    <path id="Path_3" data-name="Path 3" d="M823.733,521.7l-5.233-.541.9-8.482,5.955-.18Z" transform="translate(-504.327 -139.838)" fill="#ffb8b8"/>
    <path id="Path_4" data-name="Path 4" d="M889.305,544.871l7.821-.219c4.9-25.615,9.68-49.307,17.444-69.079l-3.248,68.936h8.3l12.632-77.238-28.874-2.887C893.711,489.939,889.322,516.845,889.305,544.871Z" transform="translate(-597.509 -170.765)" fill="#2f2e41"/>
    <path id="Path_5" data-name="Path 5" d="M878.248,706.756h0a4.39,4.39,0,0,0,4.914-1.267l1.962-2.318,3.609-1.8-.576-6.043a.517.517,0,0,0-.955-.222l-2.079,3.378c-.767-2.762-2.091-4.2-4.165-3.849a4.311,4.311,0,0,0-3.028,2.254l-1.986,3.688a4.39,4.39,0,0,0,2.3,6.184Z" transform="translate(-588.636 -317.876)" fill="#2f2e41"/>
    <path id="Path_6" data-name="Path 6" d="M958.79,706.756h0a4.39,4.39,0,0,1-4.914-1.267l-1.962-2.318-3.609-1.8.576-6.043a.517.517,0,0,1,.955-.222l2.078,3.378c.767-2.762,2.091-4.2,4.165-3.849a4.311,4.311,0,0,1,3.028,2.254l1.986,3.688a4.39,4.39,0,0,1-2.3,6.184Z" transform="translate(-635.215 -317.876)" fill="#2f2e41"/>
    <circle id="Ellipse_17" data-name="Ellipse 17" cx="8.5" cy="8.5" r="8.5" transform="translate(312 216)" fill="#ffb8b8"/>
    <rect id="Rectangle_43" data-name="Rectangle 43" width="10.828" height="11.55" transform="translate(325.723 240.203) rotate(180)" fill="#ffb8b8"/>
    <path id="Path_7" data-name="Path 7" d="M929.888,359.118c9.069,2.125,18.659,5.2,24.9,2.166l-.181-56.124a11.269,11.269,0,0,1-6.136-5.414l-4.331,3.609-6.5-3.97c-2.258,2.729-5.292,5.6-8.843,6.677Z" transform="translate(-622.753 -65.317)" fill="#e6e6e6"/>
    <path id="Path_8" data-name="Path 8" d="M971.932,349.553c-1.554,15.381,5.7,14.365,15.159,14.076-3.935-19.62-3.8-38.206,1.083-55.582-4.936-2.367-9.272-5.1-12.271-8.662.147.389-.311.154-.18.541a28.473,28.473,0,0,1-3.79,26.528Z" transform="translate(-650.18 -65.317)" fill="#2f2e41"/>
    <path id="Path_9" data-name="Path 9" d="M1015.672,471.3l-2.493,4.986a3.871,3.871,0,0,0,2.592,5.5h0a3.871,3.871,0,0,0,4.74-3.651l.214-6.838v-5.414h-5.053Z" transform="translate(-676.413 -171.723)" fill="#ffb8b8"/>
    <path id="Path_10" data-name="Path 10" d="M939.156,348.636c-.356,11.747-1.557,13.518-18.768,12.993,3.935-19.62,3.8-38.206-1.083-55.582,4.936-2.367,9.272-5.1,12.271-8.662-.2.539.334.724.18,1.263-2.573,9.018,1.668,18.485,7.4,26.528Z" transform="translate(-616.682 -64.039)" fill="#2f2e41"/>
    <path id="Path_11" data-name="Path 11" d="M905.858,467.3l2.493,4.986a3.871,3.871,0,0,1-2.592,5.5h0a3.871,3.871,0,0,1-4.74-3.651l-.214-6.838v-5.414h5.053Z" transform="translate(-604.859 -169.167)" fill="#ffb8b8"/>
    <path id="Path_12" data-name="Path 12" d="M953.086,230.9h0a9.144,9.144,0,0,1,4.178,1.23c.293.17.157.785.428.985.341.252,1.081.1,1.383.395a9.164,9.164,0,0,1,2.725,7.383l-.48,4.777-1.133-1.24a11.815,11.815,0,0,0-7.88-3.868q-.193-.013-.386-.021l.872-1.526-1.516,1.516a14.753,14.753,0,0,0-2.065.168l1.16-2.029-2.225,2.225h0a5.949,5.949,0,0,0-4.157,3.391l-.247.548-.277-4.558a9.187,9.187,0,0,1,9.621-9.376Z" transform="translate(-632.12 -21.54)" fill="#2f2e41"/>
    <ellipse id="Ellipse_18" data-name="Ellipse 18" cx="0.692" cy="1.643" rx="0.692" ry="1.643" transform="translate(328.279 222.14)" fill="#ffb8b8"/>
    <ellipse id="Ellipse_19" data-name="Ellipse 19" cx="0.692" cy="1.643" rx="0.692" ry="1.643" transform="translate(310.989 221.621)" fill="#ffb8b8"/>
    <path id="Path_13" data-name="Path 13" d="M902.787,372.787l-8.482.541,4.331-47.6a8.193,8.193,0,0,1,5.942-7.878l1.637-.468C908.569,336.943,905.933,355.669,902.787,372.787Z" transform="translate(-600.705 -76.821)" fill="#2f2e41"/>
    <path id="Path_14" data-name="Path 14" d="M1011.137,375.148l6.5.361-2.346-47.778a8.193,8.193,0,0,0-5.942-7.878l-1.637-.468C1005.351,338.943,1007.989,358.03,1011.137,375.148Z" transform="translate(-672.599 -78.099)" fill="#2f2e41"/>
  </g>
</svg>
